<?xml version="1.0" encoding="utf-8"?>
<!-- Generator: Adobe Adobe Illustrator 29.1.0, SVG Export Plug-In . SVG Version: 6.00 Build 0)  -->
<svg version="1.1" id="Layer_1" xmlns="http://www.w3.org/2000/svg" xmlns:xlink="http://www.w3.org/1999/xlink" x="0px" y="0px"
	 width="564.46px" height="125.34px" viewBox="0 0 564.46 125.34" style="enable-background:new 0 0 564.46 125.34;"
	 xml:space="preserve">
<style type="text/css">
	.st0{fill:#050404;}
</style>
<g>
	<path class="st0" d="M0,43.17c0-6.66,4.87-11.7,11.5-11.7c6.6,0,11.5,5.04,11.5,11.7s-4.91,11.7-11.47,11.7
		C4.87,54.87,0,49.83,0,43.17z M18.39,43.17c0-4.26-2.96-7.44-6.89-7.44c-3.96,0-6.92,3.18-6.92,7.44s2.96,7.44,6.95,7.44
		C15.47,50.61,18.39,47.43,18.39,43.17z"/>
	<path class="st0" d="M34.06,54.87c-5.43,0-8.42-3.28-8.45-7.73h4.35c0.03,2.31,1.3,3.96,4.19,3.96c1.82,0,3.35-0.81,3.35-2.6
		c0-1.72-1.27-2.63-4.58-3.77c-3.57-1.27-6.63-2.99-6.63-6.73c0-4.13,3.22-6.53,7.41-6.53c4.94,0,7.7,3.22,7.73,6.92H37.4
		c-0.16-1.66-1.27-3.15-3.7-3.15c-1.79,0-2.99,0.97-2.99,2.44c0,1.53,1.27,2.37,4.19,3.48c4.29,1.62,7.08,3.44,7.08,7.38
		C41.98,52.79,38.6,54.87,34.06,54.87z"/>
	<path class="st0" d="M61.38,50.29v4.26h-15.7V31.8h4.65v18.49H61.38z"/>
	<path class="st0" d="M62.62,43.17c0-6.66,4.87-11.7,11.5-11.7c6.6,0,11.5,5.04,11.5,11.7s-4.91,11.7-11.47,11.7
		C67.49,54.87,62.62,49.83,62.62,43.17z M81.01,43.17c0-4.26-2.96-7.44-6.89-7.44c-3.96,0-6.92,3.18-6.92,7.44s2.96,7.44,6.95,7.44
		C78.09,50.61,81.01,47.43,81.01,43.17z"/>
	<path class="st0" d="M121.96,54.55h-4.22V38.88h-0.36l-5.39,13.71h-4.32l-5.36-13.71h-0.36v15.66h-4.26V31.8h5.78l6.21,15.27h0.36
		l6.14-15.27h5.78V54.55z"/>
	<path class="st0" d="M141.94,50.55v4h-15.37V31.8h15.05v4h-10.79v5.33h9.29v3.8h-9.29v5.62H141.94z"/>
	<path class="st0" d="M160.66,35.83h-6.3v18.72H150V35.83h-6.27V31.8h16.93V35.83z"/>
	<path class="st0" d="M175.96,54.55l-4.55-8.38h-3.35v8.38h-4.22V31.8h8.45c4.48,0,7.6,2.73,7.6,7.12c0,2.99-1.66,5.33-4.26,6.5
		l5,9.13H175.96z M168.07,42.16h3.8c2.27,0,3.61-1.36,3.61-3.18c0-1.92-1.33-3.15-3.61-3.15h-3.8V42.16z"/>
	<path class="st0" d="M182.49,43.17c0-6.66,4.87-11.7,11.5-11.7c6.6,0,11.5,5.04,11.5,11.7s-4.91,11.7-11.47,11.7
		C187.37,54.87,182.49,49.83,182.49,43.17z M200.89,43.17c0-4.26-2.96-7.44-6.89-7.44c-3.96,0-6.92,3.18-6.92,7.44
		s2.96,7.44,6.95,7.44C197.96,50.61,200.89,47.43,200.89,43.17z"/>
	<path class="st0" d="M225.65,39.11c0,4.58-2.86,7.41-7.9,7.41h-4.39v8.03h-4.22V31.8h8.74C222.82,31.8,225.65,34.85,225.65,39.11z
		 M221.23,39.11c0-1.95-1.3-3.38-3.67-3.38h-4.19v6.86h4.06C219.96,42.59,221.23,41.22,221.23,39.11z"/>
	<path class="st0" d="M228.31,43.17c0-6.66,4.87-11.7,11.5-11.7c6.6,0,11.5,5.04,11.5,11.7s-4.91,11.7-11.47,11.7
		C233.19,54.87,228.31,49.83,228.31,43.17z M246.7,43.17c0-4.26-2.96-7.44-6.89-7.44c-3.96,0-6.92,3.18-6.92,7.44
		s2.96,7.44,6.95,7.44C243.78,50.61,246.7,47.43,246.7,43.17z"/>
	<path class="st0" d="M270.69,50.29v4.26h-15.7V31.8h4.65v18.49H270.69z"/>
	<path class="st0" d="M278.06,54.55h-4.58V31.8h4.58V54.55z"/>
	<path class="st0" d="M297.95,35.83h-6.3v18.72h-4.35V35.83h-6.27V31.8h16.93V35.83z"/>
	<path class="st0" d="M311.76,49.54h-8.61l-1.59,5h-4.68l7.7-22.75h5.78l7.67,22.75h-4.68L311.76,49.54z M310.56,45.77l-2.92-9.2
		h-0.36l-2.92,9.2H310.56z"/>
	<path class="st0" d="M339.32,31.8v22.75h-4.22l-9.91-14.79h-0.36v14.79h-4.26V31.8h4.52l9.65,14.69h0.36V31.8H339.32z"/>
	<path class="st0" d="M370.61,45.12c0,6.79-4.13,9.75-9.26,9.75c-5.13,0-9.36-2.96-9.36-9.75V31.8h4.61v13.49
		c0,3.35,1.82,5.39,4.78,5.39c2.92,0,4.65-2.05,4.65-5.39V31.8h4.58V45.12z"/>
	<path class="st0" d="M394,31.8v22.75h-4.22l-9.91-14.79h-0.36v14.79h-4.26V31.8h4.52l9.65,14.69h0.36V31.8H394z"/>
	<path class="st0" d="M403.17,54.55h-4.58V31.8h4.58V54.55z"/>
	<path class="st0" d="M426.17,31.8l-7.18,22.75h-6.11L405.7,31.8h4.71l5.39,17.94h0.36l5.33-17.94H426.17z"/>
	<path class="st0" d="M444.05,50.55v4h-15.37V31.8h15.05v4h-10.79v5.33h9.29v3.8h-9.29v5.62H444.05z"/>
	<path class="st0" d="M459.42,54.55l-4.55-8.38h-3.35v8.38h-4.22V31.8h8.45c4.48,0,7.6,2.73,7.6,7.12c0,2.99-1.66,5.33-4.26,6.5
		l5,9.13H459.42z M451.52,42.16h3.8c2.27,0,3.61-1.36,3.61-3.18c0-1.92-1.33-3.15-3.61-3.15h-3.8V42.16z"/>
	<path class="st0" d="M474.56,54.87c-5.43,0-8.42-3.28-8.45-7.73h4.35c0.03,2.31,1.3,3.96,4.19,3.96c1.82,0,3.35-0.81,3.35-2.6
		c0-1.72-1.27-2.63-4.58-3.77c-3.57-1.27-6.63-2.99-6.63-6.73c0-4.13,3.22-6.53,7.41-6.53c4.94,0,7.7,3.22,7.73,6.92h-4.03
		c-0.16-1.66-1.27-3.15-3.7-3.15c-1.79,0-2.99,0.97-2.99,2.44c0,1.53,1.27,2.37,4.19,3.48c4.29,1.62,7.08,3.44,7.08,7.38
		C482.49,52.79,479.11,54.87,474.56,54.87z"/>
	<path class="st0" d="M490.74,54.55h-4.58V31.8h4.58V54.55z"/>
	<path class="st0" d="M510.63,35.83h-6.3v18.72h-4.35V35.83h-6.27V31.8h16.93V35.83z"/>
	<path class="st0" d="M532.99,31.8l-7.9,12.74v10.01h-4.61V44.54l-7.93-12.74h5.17l4.87,7.96h0.36l4.87-7.96H532.99z"/>
	<path class="st0" d="M8.97,93.86c-5.49,0-8.06-3.09-8.22-6.95h2.37c0.16,2.6,1.66,4.91,5.78,4.91c2.83,0,5.07-1.17,5.07-3.8
		c0-2.18-1.17-3.67-5.72-5.1c-3.74-1.2-6.82-2.73-6.82-6.37c0-3.67,2.99-6.08,7.02-6.08c4.81,0,7.41,3.25,7.51,6.6h-2.24
		c-0.16-2.05-1.56-4.52-5.33-4.52c-2.83,0-4.58,1.72-4.58,3.87c0,2.37,1.92,3.41,5.52,4.55c4.65,1.49,7.02,3.57,7.02,7.02
		C16.35,91.95,13.16,93.86,8.97,93.86z"/>
	<path class="st0" d="M34.8,72.87h-6.73v20.67H25.8V72.87h-6.73v-2.08H34.8V72.87z"/>
	<path class="st0" d="M36.69,82.17c0-6.66,4.78-11.7,11.11-11.7c6.3,0,11.11,5.04,11.11,11.7c0,6.66-4.78,11.7-11.08,11.7
		C41.46,93.86,36.69,88.83,36.69,82.17z M56.54,82.17c0-5.33-3.74-9.49-8.74-9.49c-4.97,0-8.74,4.16-8.74,9.49
		c0,5.33,3.77,9.49,8.77,9.49C52.84,91.65,56.54,87.5,56.54,82.17z"/>
	<path class="st0" d="M77.14,93.54l-5.88-9.75H71h-4.74v9.75h-2.21V70.79h7.28c4.55,0,7.34,2.57,7.34,6.47
		c0,3.09-1.95,5.39-5.07,6.21l6.14,10.07H77.14z M66.26,81.68h4.71c3.48,0,5.36-1.79,5.36-4.45c0-2.79-1.98-4.32-5.36-4.32h-4.71
		V81.68z"/>
	<path class="st0" d="M98.53,87.4c0,4.16-3.15,6.14-7.18,6.14h-7.64V70.79h6.73c4.26,0,7.08,1.95,7.08,5.62
		c0,2.99-1.66,4.42-3.41,5.07v0.16C96.54,82.46,98.53,84.05,98.53,87.4z M85.89,80.83h4.58c3.18,0,4.84-1.59,4.84-4.19
		c0-2.6-2.01-3.87-4.74-3.87h-4.68V80.83z M96.25,87.27c0-2.73-2.05-4.55-5.13-4.55h-5.23v8.84h5.2
		C94.01,91.56,96.25,90.13,96.25,87.27z"/>
	<path class="st0" d="M118.93,70.79l-8.22,11.67v11.08h-2.4V82.46l-8.22-11.67h2.79l6.5,9.16h0.23l6.5-9.16H118.93z"/>
	<path class="st0" d="M140.02,84.86c0,5.95-3.8,9-8.61,9c-4.81,0-8.71-3.05-8.71-9V70.79h2.37v13.88c0,4.71,2.89,6.95,6.34,6.95
		c3.44,0,6.24-2.24,6.24-6.95V70.79h2.37V84.86z"/>
	<path class="st0" d="M164.13,70.79v22.75h-2.7L148.5,74.4h-0.23v19.14h-2.24V70.79h2.79l12.8,19.04h0.23V70.79H164.13z"/>
	<path class="st0" d="M172.52,93.54h-2.34V70.79h2.34V93.54z"/>
	<path class="st0" d="M195.65,70.79l-8.06,22.75h-3.25l-8.03-22.75h2.47l7.05,20.21h0.26l7.08-20.21H195.65z"/>
	<path class="st0" d="M213.79,91.43v2.11h-14.33V70.79h14.01v2.11h-11.8V81h10.53v2.05h-10.53v8.38H213.79z"/>
	<path class="st0" d="M230.88,93.54L225,83.79h-0.26h-4.74v9.75h-2.21V70.79h7.28c4.55,0,7.34,2.57,7.34,6.47
		c0,3.09-1.95,5.39-5.07,6.21l6.14,10.07H230.88z M219.99,81.68h4.71c3.48,0,5.36-1.79,5.36-4.45c0-2.79-1.98-4.32-5.36-4.32h-4.71
		V81.68z"/>
	<path class="st0" d="M244.85,93.86c-5.49,0-8.06-3.09-8.22-6.95H239c0.16,2.6,1.66,4.91,5.78,4.91c2.83,0,5.07-1.17,5.07-3.8
		c0-2.18-1.17-3.67-5.72-5.1c-3.74-1.2-6.82-2.73-6.82-6.37c0-3.67,2.99-6.08,7.02-6.08c4.81,0,7.41,3.25,7.51,6.6h-2.24
		c-0.16-2.05-1.56-4.52-5.33-4.52c-2.83,0-4.58,1.72-4.58,3.87c0,2.37,1.92,3.41,5.52,4.55c4.65,1.49,7.02,3.57,7.02,7.02
		C252.23,91.95,249.04,93.86,244.85,93.86z"/>
	<path class="st0" d="M259.73,93.54h-2.34V70.79h2.34V93.54z"/>
	<path class="st0" d="M279.52,72.87h-6.73v20.67h-2.27V72.87h-6.73v-2.08h15.73V72.87z"/>
	<path class="st0" d="M297.98,91.43v2.11h-14.33V70.79h14.01v2.11h-11.8V81h10.53v2.05h-10.53v8.38H297.98z"/>
	<path class="st0" d="M316.47,72.87h-6.73v20.67h-2.27V72.87h-6.73v-2.08h15.73V72.87z"/>
	<path class="st0" d="M334.93,91.43v2.11H320.6V70.79h14.01v2.11h-11.8V81h10.53v2.05h-10.53v8.38H334.93z"/>
	<path class="st0" d="M353.42,72.87h-6.73v20.67h-2.27V72.87h-6.73v-2.08h15.73V72.87z"/>
</g>
</svg>
