<?xml version="1.0" encoding="utf-8"?>
<!-- Generator: Adobe Adobe Illustrator 29.1.0, SVG Export Plug-In . SVG Version: 6.00 Build 0)  -->
<svg version="1.1" id="Layer_1" xmlns="http://www.w3.org/2000/svg" xmlns:xlink="http://www.w3.org/1999/xlink" x="0px" y="0px"
	 width="187.21px" height="155.14px" viewBox="0 0 187.21 155.14" style="enable-background:new 0 0 187.21 155.14;"
	 xml:space="preserve">
<style type="text/css">
	.st0{fill:#050404;}
</style>
<g>
	<path class="st0" d="M4.76,116.54c-6.28-6.28-6.4-15.66-0.03-22.03c6.28-6.28,15.69-6.19,21.97,0.09s6.37,15.69,0.09,21.97
		C20.39,122.97,11.04,122.82,4.76,116.54z M21.62,99.68c-3.65-3.65-8.89-3.8-12.2-0.49c-3.43,3.43-3.22,8.61,0.43,12.26
		c3.65,3.65,8.83,3.86,12.26,0.43C25.45,108.54,25.26,103.33,21.62,99.68z"/>
	<path class="st0" d="M48.2,95.16c-5.09,5.09-11.19,4.87-15.57,0.49l4.75-4.75c2.05,2.05,4.54,2.27,6.83-0.03
		c1.38-1.38,1.9-3.25,0.52-4.63c-1.47-1.47-3.8-0.8-7.11,0.67c-4.05,1.65-9.01,3.49-12.57-0.06c-4.08-4.08-3.19-9.5,0.8-13.48
		c4.69-4.69,10.42-4.35,14.04-0.74l-4.44,4.44c-1.56-1.32-3.62-1.47-5.45,0.37c-1.35,1.35-1.59,3-0.43,4.17
		c1.13,1.13,2.7,0.67,5.95-0.67c5.58-2.21,10.36-3.49,14.25,0.4C53.84,85.42,52.64,90.72,48.2,95.16z"/>
	<path class="st0" d="M63.06,58.17c-6.28-6.28-6.4-15.66-0.03-22.03c6.28-6.28,15.69-6.19,21.97,0.09s6.37,15.69,0.09,21.97
		C78.69,64.61,69.34,64.45,63.06,58.17z M79.91,41.32c-3.65-3.65-8.89-3.8-12.2-0.49c-3.43,3.43-3.22,8.61,0.43,12.26
		c3.65,3.65,8.83,3.86,12.26,0.43C83.74,50.18,83.56,44.97,79.91,41.32z"/>
	<path class="st0" d="M67,66.23l4.68,4.68L59.5,83.08L38.19,61.77l4.75-4.75l16.63,16.63L67,66.23z"/>
	<path class="st0" d="M151.33,111.87l-4.75-4.75l-16.55,16.55l-4.84-4.84l16.55-16.55l-4.75-4.75l4.41-4.41l14.34,14.34
		L151.33,111.87z"/>
	<path class="st0" d="M121.6,106.46l-4.41,4.41l-12.48-12.48l20.98-20.98l12.47,12.47l-4.41,4.41l-7.75-7.75l-3.84,3.84l7.03,7.03
		l-4.17,4.17l-7.03-7.03l-4.14,4.14L121.6,106.46z"/>
	<path class="st0" d="M100.85,94.53l-4.69-4.69l11.54-11.61l-15.57,7.58l-4.33-4.33l7.57-15.71L83.76,77.44l-4.69-4.69l20.98-20.98
		l6.25,6.25l-9.58,18.93l18.83-9.69l6.28,6.28L100.85,94.53z"/>
</g>
</svg>
